<svg xmlns="http://www.w3.org/2000/svg" xmlns:xlink="http://www.w3.org/1999/xlink" width="1080" zoomAndPan="magnify" viewBox="0 0 810 809.999993" height="1080" preserveAspectRatio="xMidYMid meet" version="1.0"><defs><g/></defs><rect x="-81" width="972" fill="#ffffff" y="-80.999999" height="971.999992" fill-opacity="1"/><rect x="-81" width="972" fill="#000000" y="-80.999999" height="971.999992" fill-opacity="1"/><g fill="#ffffff" fill-opacity="1"><g transform="translate(42.855808, 595.50521)"><g><path d="M 366.046875 0 L 286.734375 0 L 258.03125 -87.921875 L 111.921875 -87.921875 L 83.234375 0 L 5.734375 0 L 137.5 -381.4375 L 234.296875 -381.4375 Z M 181.328125 -301.859375 L 132.28125 -151.328125 L 237.15625 -151.328125 L 187.84375 -301.859375 Z M 181.328125 -301.859375 "/></g></g></g><g fill="#2b7fff" fill-opacity="1"><g transform="translate(414.651071, 595.50521)"><g><path d="M 49.578125 0 L 49.578125 -381.4375 L 124.96875 -381.4375 L 124.96875 -225.6875 L 133.328125 -225.6875 L 260.640625 -381.4375 L 337.875 -381.4375 L 337.875 -374.921875 L 197.5 -201.421875 L 352.484375 -6.515625 L 352.484375 0 L 267.171875 0 L 133.328125 -164.625 L 124.96875 -164.625 L 124.96875 0 Z M 49.578125 0 "/></g></g></g></svg>